<?xml version="1.0" encoding="UTF-8"?>
<svg xmlns="http://www.w3.org/2000/svg" xmlns:xlink="http://www.w3.org/1999/xlink" xmlns:serif="http://www.serif.com/" width="100%" height="100%" viewBox="0 0 9375 9375" version="1.2" xml:space="preserve" baseProfile="tiny-ps" fill-rule="evenodd" stroke-miterlimit="2">
<title>IK Homes</title>
<g id="design"><g>
<path d="M7446.91,7062.93c49.702,-2.34 127.442,3.295 165.779,12.402c18.721,4.447 61.717,14.041 61.717,14.041l0,159.207l-30.676,0c-0,0 -3.36,-26.401 -24.044,-57.657c-11.565,-17.475 -53.341,-86.551 -153.779,-77.642c-45.923,4.074 -63.599,16.334 -86.943,35.396c-9.214,7.524 -27.359,33.969 -29.825,60.527c-2.417,26.024 4.093,52.157 13.285,60.704c20.451,19.018 54.248,52.66 90.044,73.394c10.648,6.168 145.39,102.753 163.409,115.488c85.038,60.099 82.226,149.406 82.226,185.777c-0,36.093 -21.429,92.311 -78.417,136.611c-33.692,26.191 -57.242,38.24 -117.115,48.73c-52.471,9.194 -153.432,19.209 -153.432,19.209c-0,0 -104.373,-14.854 -118.359,-22.179c-30.599,-16.027 -51.315,-35.54 -51.315,-35.54l-0.715,-146.831l43.961,0c-0,0 3.353,23.499 7.142,36.093c6.705,22.286 18.559,57.783 41.466,73.934c32.766,23.102 85.073,45.551 141.742,47.137c60.736,1.701 116.414,-33.572 142.296,-65.82c25.882,-32.248 27.903,-90.571 12.994,-127.669c-14.908,-37.098 -47.101,-73.193 -102.444,-94.921c-52.846,-20.747 -112.087,-52.363 -151.43,-77.952c-31.705,-20.622 -65.574,-45.945 -84.624,-75.585c-19.049,-29.64 -30.222,-68.154 -29.672,-102.255c0.55,-34.101 13.921,-72.896 32.97,-102.352c19.05,-29.457 47.99,-49.398 81.326,-65.804c33.337,-16.406 87.467,-24.326 132.433,-26.443Zm136.082,718.248c6.293,-19.302 119.507,-159.727 69.363,-256.351c-64.663,-124.601 -360.176,-193.1 -360.176,-193.1c-0,-0 58.786,-147.886 57.426,-118.711c-0.68,21.881 5.781,40.845 19.384,56.892c13.603,16.046 30.946,30.999 52.03,44.857l194.858,135.665c31.286,18.964 54.921,43.763 70.904,74.397c15.983,30.634 22.954,66.374 20.914,107.22c-3.401,71.479 -28.906,127.095 -76.515,166.846c-47.609,39.752 -156.572,59.627 -238.188,59.627c-29.926,0 -59.002,-2.735 -87.227,-8.205c-28.226,-5.471 -53.221,-13.129 -74.985,-22.976c-21.764,-9.847 -39.107,-21.699 -52.03,-35.557c-0.392,-1.156 -0.012,-147.215 -0.012,-147.215c-0,0 46.006,112.71 90.767,136.611c111.152,59.353 298.227,46.801 313.487,0Z" fill="#403a36" fill-rule="nonzero" stroke="#3f3935" stroke-width="4.17px"></path><path d="M6678.73,7086.96l6.994,46.612l0,297.197l-6.994,61.61l-0,353.386l-133.547,0l-0,-758.805l133.547,-0Zm309.121,707.223l39.284,51.582l-348.405,0l-0,-51.582l309.121,-0Zm-54.735,-363.414l0,61.61l-254.386,-0l6.994,-61.61l247.392,0Zm76.541,-343.809l0,46.612l-330.927,0l-0,-46.612l330.927,-0Zm52.369,573.571l-31.62,185.234l-218.096,0l30.529,-51.582c36.344,-0 68.327,-7.046 95.948,-21.138c27.621,-14.093 51.245,-34.327 70.87,-60.705c19.626,-26.377 34.401,-51.809 34.401,-51.809l17.968,-0Zm-128.91,-170.32l0,69.931l-19.406,-0c-0,-0 -0.761,-12.214 -2.375,-18.351c-5.158,-19.621 -15.573,-32.064 -27.162,-39.469c-18.924,-12.092 -49.878,-9.587 -63.14,-9.943l-0,-2.168l112.083,-0Zm0,-146.091l0,88.817l-103.58,0l0,-2.168c26.895,-0.722 40.561,5.311 58.006,-12.395c17.445,-17.705 26.168,-39.566 26.168,-65.582l-0,-8.672l19.406,-0Zm76.541,-213.8l0,126.829l-26.284,0l0,-13.008c0,-33.243 -9.995,-59.982 -29.984,-80.216c-19.989,-20.235 -60.392,-29.63 -94.555,-30.353l28.708,-3.252l122.115,0Zm-461.203,615.624l-0,99.821l-87.225,0l-0,-31.528l14.174,-0c18.899,-0 35.072,-6.685 48.519,-20.054c13.447,-13.37 20.534,-29.449 21.261,-48.239l3.271,0Zm-0,-564.133l-3.271,-0c-0.727,-18.79 -7.814,-34.869 -21.261,-48.239c-13.447,-13.369 -29.62,-20.054 -48.519,-20.054l-14.174,0l-0,-26.558l87.225,-0l-0,94.851Z" fill="#403a36" fill-rule="nonzero" stroke="#3f3935" stroke-width="8.33px" stroke-linecap="square"></path><path d="M5812.9,7845.76l-278.512,-627.301l-14.74,486.098c-0,46.633 4.913,75.731 14.74,87.296c13.466,15.669 34.757,23.503 63.873,23.503l0,30.404l-216.733,0l0,-30.404c15.436,-0 39.002,-4.685 54.631,-29.099c16.064,-25.091 23.983,-70.213 23.983,-91.768c-0,0 12.28,-384.09 14.737,-476.03c0.336,-12.597 0.177,-36.415 0.177,-36.415c0,-0 -1.165,-28.686 -14.914,-42.723c-16.889,-17.241 -28.254,-17.748 -78.614,-20.749l0,-31.617l262.165,-0l235.25,533.228l213.115,-533.228l240.258,-0l-0,31.617c-31.664,-0 -68.872,16.573 -81.974,35.972c-8.007,11.938 -0,138.989 -0,181.518l14.825,378.195c-0,46.632 5.095,60.435 15.286,72c13.466,15.669 22.747,23.503 51.863,23.503l25.658,0l0,36l-312.214,0l-0,-30.404l31.553,-0c18.46,-0 30.785,-14.136 39.766,-39.167c6.424,-17.903 6.91,-44.198 6.91,-61.932l-12.011,-484.087l-257.005,615.59l-42.073,0Z" fill="#403a36" fill-rule="nonzero" stroke="#3f3935" stroke-width="4.17px" stroke-linecap="square"></path><path d="M4901.87,7071.78c76.561,-0 149.773,16.079 206.237,48.238c56.464,32.159 100.167,77.507 131.111,136.043c30.943,58.537 46.415,128.636 46.415,210.298c-0,80.939 -15.472,150.857 -46.415,209.755c-30.944,58.898 -81.347,104.426 -137.81,136.585c-56.464,32.159 -122.977,48.239 -199.538,48.239c-76.561,-0 -143.073,-16.08 -199.537,-48.239c-56.464,-32.159 -100.008,-77.506 -130.633,-136.043c-30.624,-58.536 -45.936,-128.635 -45.936,-210.297c-0,-80.94 15.312,-150.858 45.936,-209.756c30.625,-58.898 74.169,-104.426 130.633,-136.585c56.464,-32.159 122.976,-48.238 199.537,-48.238Zm0,743.629c45.299,0 91.076,-14.273 123.934,-42.818c32.857,-28.546 64.757,-68.835 82.303,-120.867c17.545,-52.032 26.318,-113.821 26.318,-185.365c-0,-71.545 -8.773,-133.333 -26.318,-185.366c-17.546,-52.032 -49.446,-92.321 -82.303,-120.867c-32.858,-28.545 -78.635,-42.818 -123.934,-42.818c-44.66,0 -90.597,14.273 -123.455,42.818c-32.857,28.546 -58.218,68.835 -76.082,120.867c-17.864,52.033 -26.797,113.821 -26.797,185.366c0,71.544 8.933,133.333 26.797,185.365c17.864,52.032 50.403,92.321 83.26,120.867c32.857,28.545 71.617,42.818 116.277,42.818Z" fill="#403a36" fill-rule="nonzero" stroke="#3f3935" stroke-width="20.83px" stroke-linejoin="round"></path><path d="M4348.56,7086.96l-0,758.805l-153.683,0l-0,-758.805l153.683,-0Zm-485.638,-0l-0,758.805l-153.683,0l-0,-758.805l153.683,-0Zm341.176,332.289l-0,70.472l-351.422,-0l0,-70.472l351.422,0Zm-491.785,347.384l-0,79.132l-81.965,0l0,-10.84l13.32,0c17.759,0 32.956,-6.684 45.592,-20.054c12.636,-13.369 19.296,-29.449 19.979,-48.238l3.074,-0Zm-0,-600.54l-3.074,-0c-0.683,-18.79 -7.343,-34.869 -19.979,-48.239c-12.636,-13.369 -27.833,-20.054 -45.592,-20.054l-13.32,0l0,-10.84l81.965,-0l-0,79.133Zm147.535,600.54l3.074,-0c0.683,18.789 7.342,34.869 19.979,48.238c12.636,13.37 27.833,20.054 45.592,20.054l13.319,0l0,10.84l-81.964,0l0,-79.132Zm0,-600.54l0,-79.133l81.964,-0l0,10.84l-13.319,0c-17.759,0 -32.956,6.685 -45.592,20.054c-12.637,13.37 -19.296,29.449 -19.979,48.239l-3.074,-0Zm338.102,600.54l0,79.132l-81.964,0l0,-10.84l13.319,0c17.759,0 33.128,-6.684 46.105,-20.054c12.978,-13.369 19.467,-29.449 19.467,-48.238l3.073,-0Zm0,-600.54l-3.073,-0c-0,-18.79 -6.489,-34.869 -19.467,-48.239c-12.977,-13.369 -28.346,-20.054 -46.105,-20.054l-13.319,0l0,-10.84l81.964,-0l0,79.133Zm147.536,600.54l3.074,-0c0.683,18.789 7.342,34.869 19.978,48.238c12.637,13.37 27.834,20.054 45.593,20.054l13.319,0l0,10.84l-81.964,0l-0,-79.132Zm-0,-600.54l-0,-79.133l81.964,-0l0,10.84l-13.319,0c-17.759,0 -32.956,6.685 -45.593,20.054c-12.636,13.37 -19.295,29.449 -19.978,48.239l-3.074,-0Z" fill="#403a36" fill-rule="nonzero" stroke="#3f3935" stroke-width="4.17px"></path></g><path d="M2595.62,6907.66l153.541,-0.014c44.175,0.319 82.616,-0.024 82.616,26.704c0,22.493 -17.056,47.213 -60.684,101.283l-266.125,277.621l-0,-69.387l-1.804,-198.552c-0,-50.422 2.405,-76.234 7.217,-88.472c6.015,-16.154 14.235,-27.658 24.66,-34.511c13.983,-9.485 34.175,-14.375 60.579,-14.672Zm-529.892,-0.014l155.35,-0c22.856,-0 41,1.682 54.432,11.228c13.433,9.546 22.355,20.683 26.765,33.41c4.411,12.728 6.616,44.547 6.616,95.458l0,594.175c0,49.931 -2.205,80.772 -6.616,92.52c-5.613,16.644 -13.633,28.393 -24.058,35.246c-14.435,10.281 -33.481,19.092 -57.139,19.092l-115.569,0c-21.421,0 -62.814,-0.372 -82.52,-12.516c-18.99,-11.704 -35.864,-36.847 -36.355,-61.796l-0,-717.204c0.824,-24.656 8.857,-45.755 24.099,-63.298c15.242,-17.544 33.573,-26.315 54.995,-26.315Zm529.892,938.415l-928.662,-0l0,-57.286l16.066,0c32.267,0.21 66.795,-0.218 81.808,-9.568c18.936,-11.794 36.231,-35.876 36.356,-61.796l-0,-738.401c-1.414,-24.231 -17.365,-50.092 -36.356,-61.796c-19.705,-12.144 -60.386,-9.568 -81.808,-9.568l-16.066,-0l0,-57.286l1471.05,-0l0,57.3l-24.65,0c-41.006,1.078 -56.455,5.402 -81.869,17.406c-29.147,13.766 -65.023,40.025 -92.61,66.033c-61.923,58.378 -278.925,284.235 -278.925,284.235l400.834,421.532l77.22,91.909l0,57.286l-542.386,-0l0,-57.286l184.105,0c-0,0 51.467,1.199 71.826,-9.568c20.403,-10.792 5.074,-39.55 -0,-44.864c-44.444,-46.55 -348.387,-365.663 -348.387,-365.663l1.804,307.025c-0,51.89 2.406,57.03 7.217,69.758c4.812,12.727 14.035,23.619 27.668,32.676c13.633,9.056 25.694,10.636 55.767,10.636l0,57.286Z" fill="#bb973f"></path><path d="M4608.53,5618.06c1.325,226.795 0,338.55 0,338.55c0.007,50.204 27.247,74.072 51.619,101.669c34.996,39.628 106.413,77.443 151.571,77.443l28.533,1.385l-0,161.783l-219.036,-0.45l-667.952,-0l0,-161.333l25.317,-0.451c33.755,0 99.364,-0.934 134.358,-33.473c32.32,-30.052 38.361,-44.904 38.361,-117.751c-0,-402.148 23.143,-2017.7 24.29,-2079.03l419.15,-0c0,-0 5.244,591.27 8.406,1138.75l1507.37,-1533.81l-1427.45,-1333.72l-1300.96,1223.18l-0,2524.96c1.516,72.162 32.895,124.922 67.16,157.258c36.285,34.241 109.4,54.081 148.821,54.081l31.292,-0l0,162.234l-247.145,-0l-0,-0.451l-590.655,0l-291.161,0.451l-0,-162.234l34.432,-0c45.911,-0 133.074,-13.424 175.332,-46.374c38.557,-30.064 77.456,-99.094 81.397,-164.965l-0,-2234.92l-413.666,-0l2305.16,-2161.91l2301.43,2161.91l-480.682,-0l-988.51,1003.15l887.829,1208.88c-0,0 -0.229,0.468 26.823,36.523c103.577,138.048 242.208,197.65 298.24,197.701c60.794,0.055 61.541,-0 61.541,-0l0,162.234l-747.689,-0.901l-888.886,-1234.15l-544.632,553.772Zm-13.789,-2272.61l-419.15,-0l-0,419.062l419.15,0l0,-419.062Zm554.122,-0l-419.15,-0l-0,419.062l419.15,0l0,-419.062Zm0,560.955l-419.15,-0l-0,419.062l419.15,0l0,-419.062Zm-1766.76,-1838.93l-567.676,-0l0,1029.14l567.676,-532.093l-0,-497.049Z" fill="#bb973f"></path></g></svg>